<svg width="32" height="32" viewBox="0 0 32 32" fill="none" xmlns="http://www.w3.org/2000/svg">
<rect width="32" height="32" rx="4" fill="#EDEDED"/>
<g clip-path="url(#clip0_537_91)">
<path d="M23.5435 21.079L21.066 11.9084C20.834 10.6534 20.2138 9.5111 19.2995 8.65449C18.3852 7.79789 17.2266 7.27368 15.9992 7.1613C16.0667 6.40679 16.2504 5.66839 16.5434 4.97424C16.8503 4.26442 17.4159 3.33817 18.3679 2.95591C18.4273 2.93322 18.4817 2.89849 18.5281 2.85376C18.5744 2.80902 18.6116 2.75518 18.6377 2.69536C18.6637 2.63555 18.678 2.57096 18.6797 2.50535C18.6814 2.43975 18.6705 2.37444 18.6477 2.31325C18.6248 2.25205 18.5904 2.19619 18.5466 2.14891C18.5027 2.10163 18.4501 2.06388 18.392 2.03786C18.3339 2.01185 18.2714 1.99808 18.2082 1.99737C18.1449 1.99666 18.0821 2.00902 18.0235 2.03373C17.0299 2.43228 16.218 3.30908 15.6733 4.56988C15.6621 4.59606 15.6514 4.62282 15.6407 4.649C15.3103 4.00901 14.8093 3.34631 14.1203 2.89133C12.7306 1.97381 11.2029 2.29613 10.165 2.72784C10.106 2.75243 10.0524 2.78899 10.0072 2.83538C9.96208 2.88178 9.92632 2.93706 9.90207 2.99799C9.87782 3.05892 9.86555 3.12426 9.866 3.19017C9.86644 3.25608 9.87959 3.32124 9.90467 3.38181C10.3995 4.57628 11.0475 5.4845 11.8307 6.08086C12.5431 6.62902 13.4089 6.92059 14.2959 6.91111C14.5556 6.91039 14.8148 6.88899 15.0713 6.84711C15.0595 6.95184 15.05 7.05541 15.0421 7.15839C13.8074 7.26258 12.6397 7.78346 11.7177 8.64132C10.7956 9.49917 10.17 10.6467 9.93665 11.9084L7.45686 21.079C7.02761 22.2523 6.9306 23.5284 7.17724 24.757C7.42389 25.9856 8.00393 27.1155 8.84905 28.0137C9.69417 28.9118 10.7692 29.5409 11.9475 29.8267C13.1258 30.1126 14.3583 30.0433 15.4999 29.627C16.6415 30.0434 17.8742 30.1128 19.0525 29.8271C20.2309 29.5413 21.3061 28.9123 22.1513 28.0141C22.9965 27.1158 23.5766 25.9859 23.8232 24.7572C24.0699 23.5285 23.9728 22.2524 23.5435 21.079ZM10.997 3.47199C12.0024 3.16013 12.8782 3.2445 13.6075 3.72566C14.4603 4.28828 14.9176 5.26399 15.0943 5.83999C13.3113 6.18908 11.9362 5.39199 10.997 3.47199ZM17.61 29.0138C16.9472 29.0149 16.29 28.8887 15.6716 28.6414C15.5611 28.5972 15.4387 28.5972 15.3282 28.6414C14.3542 29.0299 13.2925 29.1171 12.2717 28.8925C11.2508 28.6679 10.3147 28.1411 9.57672 27.376C8.83873 26.6108 8.33054 25.6402 8.11371 24.5816C7.89688 23.523 7.98072 22.4219 8.35508 21.4118C8.36013 21.3972 8.36518 21.3827 8.3691 21.3675L10.8584 12.1545C10.8624 12.1405 10.8656 12.1263 10.868 12.112C11.07 10.991 11.6437 9.97857 12.4897 9.25002C13.3357 8.52147 14.4008 8.12267 15.5005 8.12267C16.6001 8.12267 17.6652 8.52147 18.5112 9.25002C19.3572 9.97857 19.9309 10.991 20.133 12.112C20.1353 12.1263 20.1385 12.1405 20.1425 12.1545L22.6313 21.3675C22.6352 21.3827 22.6403 21.3972 22.6453 21.4118C22.9586 22.259 23.0686 23.1725 22.9657 24.0736C22.8628 24.9747 22.5501 25.8363 22.0546 26.5842C21.5591 27.332 20.8957 27.9437 20.1215 28.3665C19.3473 28.7892 18.4855 29.0104 17.6105 29.0109L17.61 29.0138Z" fill="#AEAEAE"/>
<path d="M13.1583 27.5017C11.097 27.5017 9.42007 25.6398 9.42007 23.3556C9.42007 23.3016 9.39938 23.2498 9.36256 23.2116C9.32573 23.1734 9.27579 23.152 9.22371 23.152C9.17163 23.152 9.12168 23.1734 9.08486 23.2116C9.04803 23.2498 9.02734 23.3016 9.02734 23.3556C9.02734 25.8662 10.8788 27.9089 13.1583 27.9089C13.2104 27.9089 13.2603 27.8875 13.2971 27.8493C13.3339 27.8111 13.3546 27.7593 13.3546 27.7053C13.3546 27.6513 13.3339 27.5995 13.2971 27.5613C13.2603 27.5231 13.2104 27.5017 13.1583 27.5017Z" fill="#AEAEAE"/>
</g>
<defs>
<clipPath id="clip0_537_91">
<rect width="27" height="28" fill="white" transform="translate(2 2)"/>
</clipPath>
</defs>
</svg>
