<svg width="172" height="49" viewBox="0 0 172 49" fill="none" xmlns="http://www.w3.org/2000/svg">
<path d="M19.65 47.25C15.6833 47.25 12.2333 46.5333 9.3 45.1C6.36667 43.6333 4.11667 41.5667 2.55 38.9C0.983334 36.2333 0.2 33.1333 0.2 29.6C0.2 24.7 1.11667 20.35 2.95 16.55C4.81667 12.75 7.33333 9.81666 10.5 7.75C13.6667 5.65 17.1833 4.6 21.05 4.6C24.65 4.6 27.3833 5.53333 29.25 7.4C31.1167 9.23333 32.05 11.6667 32.05 14.7C32.05 16.7333 31.6833 18.3667 30.95 19.6C30.25 20.8333 29.2333 21.45 27.9 21.45C26.9667 21.45 26.2333 21.2333 25.7 20.8C25.1667 20.3667 24.9 19.7333 24.9 18.9C24.9 18.6 24.9667 18.05 25.1 17.25C25.3 16.25 25.4 15.45 25.4 14.85C25.4 11.8167 23.7833 10.3 20.55 10.3C18.35 10.3 16.25 11.0167 14.25 12.45C12.25 13.8833 10.6333 16 9.4 18.8C8.16667 21.5667 7.55 24.8667 7.55 28.7C7.55 32.7 8.66667 35.8 10.9 38C13.1333 40.1667 16.4333 41.25 20.8 41.25C22.9667 41.25 25.15 40.9833 27.35 40.45C29.5833 39.8833 32.05 39.0333 34.75 37.9C35.25 37.7 35.6667 37.6 36 37.6C36.5333 37.6 36.9333 37.8 37.2 38.2C37.4667 38.6 37.6 39.1167 37.6 39.75C37.6 41.7833 36.5 43.2833 34.3 44.25C31.9333 45.2833 29.4667 46.05 26.9 46.55C24.3667 47.0167 21.95 47.25 19.65 47.25ZM39.8273 47.25C37.7607 47.25 36.1107 46.5 34.8773 45C33.644 43.5 33.0273 41.5333 33.0273 39.1C33.0273 36.4333 33.644 33.9167 34.8773 31.55C36.1107 29.15 37.744 27.2333 39.7773 25.8C41.844 24.3333 44.0273 23.6 46.3273 23.6C47.0607 23.6 47.544 23.75 47.7773 24.05C48.044 24.3167 48.2607 24.8167 48.4273 25.55C49.1273 25.4167 49.8607 25.35 50.6273 25.35C52.2607 25.35 53.0773 25.9333 53.0773 27.1C53.0773 27.8 52.8273 29.4667 52.3273 32.1C51.5607 35.9333 51.1773 38.6 51.1773 40.1C51.1773 40.6 51.294 41 51.5273 41.3C51.794 41.6 52.1273 41.75 52.5273 41.75C53.1607 41.75 53.9273 41.35 54.8273 40.55C55.7273 39.7167 56.944 38.3833 58.4773 36.55C58.8773 36.0833 59.3273 35.85 59.8273 35.85C60.2607 35.85 60.594 36.05 60.8273 36.45C61.094 36.85 61.2273 37.4 61.2273 38.1C61.2273 39.4333 60.9107 40.4667 60.2773 41.2C58.9107 42.9 57.4607 44.3333 55.9273 45.5C54.394 46.6667 52.9107 47.25 51.4773 47.25C50.3773 47.25 49.3607 46.8833 48.4273 46.15C47.5273 45.3833 46.844 44.35 46.3773 43.05C44.644 45.85 42.4607 47.25 39.8273 47.25ZM41.6273 42.2C42.3607 42.2 43.0607 41.7667 43.7273 40.9C44.394 40.0333 44.8773 38.8833 45.1773 37.45L47.0273 28.25C45.6273 28.2833 44.3273 28.8167 43.1273 29.85C41.9607 30.85 41.0273 32.1833 40.3273 33.85C39.6273 35.5167 39.2773 37.2833 39.2773 39.15C39.2773 40.1833 39.4773 40.95 39.8773 41.45C40.3107 41.95 40.894 42.2 41.6273 42.2ZM76.1137 35.85C76.547 35.85 76.8803 36.05 77.1137 36.45C77.3803 36.85 77.5137 37.4 77.5137 38.1C77.5137 39.4333 77.197 40.4667 76.5637 41.2C75.1303 42.9667 73.5637 44.4167 71.8637 45.55C70.197 46.6833 68.297 47.25 66.1637 47.25C63.2303 47.25 61.047 45.9167 59.6137 43.25C58.2137 40.5833 57.5137 37.1333 57.5137 32.9C57.5137 28.8333 58.0303 24.2 59.0637 19C60.1303 13.8 61.6803 9.33333 63.7137 5.6C65.7803 1.86666 68.2303 -2.86102e-06 71.0637 -2.86102e-06C72.6637 -2.86102e-06 73.9137 0.749997 74.8137 2.25C75.747 3.71667 76.2137 5.83333 76.2137 8.6C76.2137 12.5667 75.1137 17.1667 72.9137 22.4C70.7137 27.6333 67.7303 32.8167 63.9637 37.95C64.197 39.3167 64.5803 40.3 65.1137 40.9C65.647 41.4667 66.347 41.75 67.2137 41.75C68.5803 41.75 69.7803 41.3667 70.8137 40.6C71.847 39.8 73.1637 38.45 74.7637 36.55C75.1637 36.0833 75.6137 35.85 76.1137 35.85ZM69.9637 4.95C69.197 4.95 68.3303 6.33333 67.3637 9.1C66.397 11.8667 65.547 15.3 64.8137 19.4C64.0803 23.5 63.6803 27.4333 63.6137 31.2C65.9803 27.3 67.8637 23.4 69.2637 19.5C70.6637 15.5667 71.3637 11.9833 71.3637 8.75C71.3637 6.21667 70.897 4.95 69.9637 4.95ZM83.0223 47.25C79.7556 47.25 77.2056 46.3333 75.3723 44.5C73.5723 42.6333 72.6723 40.1833 72.6723 37.15C72.6723 34.45 73.2056 32.0833 74.2723 30.05C75.3389 28.0167 76.7223 26.45 78.4223 25.35C80.1223 24.25 81.9056 23.7 83.7723 23.7C85.6056 23.7 87.0223 24.25 88.0223 25.35C89.0556 26.4167 89.5723 27.8 89.5723 29.5C89.5723 30.9 89.2556 32.0833 88.6223 33.05C88.0223 34.0167 87.2223 34.5 86.2223 34.5C85.5889 34.5 85.0723 34.35 84.6723 34.05C84.3056 33.75 84.1223 33.3333 84.1223 32.8C84.1223 32.5667 84.1556 32.3 84.2223 32C84.2889 31.7 84.3389 31.4833 84.3723 31.35C84.5389 30.85 84.6223 30.3833 84.6223 29.95C84.6223 29.5167 84.5056 29.1833 84.2723 28.95C84.0723 28.7167 83.7723 28.6 83.3723 28.6C82.6056 28.6 81.8889 28.95 81.2223 29.65C80.5556 30.3167 80.0223 31.2333 79.6223 32.4C79.2223 33.5667 79.0223 34.85 79.0223 36.25C79.0223 40.1167 80.7056 42.05 84.0723 42.05C85.4389 42.05 86.9056 41.6 88.4723 40.7C90.0723 39.7667 91.6389 38.3833 93.1723 36.55C93.5723 36.0833 94.0223 35.85 94.5223 35.85C94.9556 35.85 95.2889 36.05 95.5223 36.45C95.7889 36.85 95.9223 37.4 95.9223 38.1C95.9223 39.3667 95.6056 40.4 94.9723 41.2C93.4056 43.1333 91.5223 44.6333 89.3223 45.7C87.1556 46.7333 85.0556 47.25 83.0223 47.25ZM96.9805 47.25C95.4805 47.25 94.2471 46.5667 93.2805 45.2C92.3471 43.8 91.8805 42.0667 91.8805 40C91.8805 37.5 92.0471 35.2167 92.3805 33.15C92.7138 31.05 93.2638 28.8333 94.0305 26.5C94.3638 25.5 94.8305 24.7833 95.4305 24.35C96.0305 23.9167 96.9805 23.7 98.2805 23.7C99.0138 23.7 99.5138 23.8167 99.7805 24.05C100.08 24.2833 100.23 24.6333 100.23 25.1C100.23 25.3667 100.047 26.2667 99.6805 27.8C99.3471 29.0333 99.0805 30.15 98.8805 31.15C98.2138 34.65 97.8805 36.9833 97.8805 38.15C97.8805 38.85 97.9638 39.35 98.1305 39.65C98.2971 39.9167 98.5638 40.05 98.9305 40.05C99.4305 40.05 100.047 39.55 100.78 38.55C101.547 37.55 102.347 36.0333 103.18 34C104.047 31.9667 104.88 29.4667 105.68 26.5C105.947 25.5 106.347 24.7833 106.88 24.35C107.447 23.9167 108.28 23.7 109.38 23.7C110.147 23.7 110.68 23.8 110.98 24C111.28 24.1667 111.43 24.5 111.43 25C111.43 25.8333 111.014 28.1167 110.18 31.85C109.247 36.1167 108.78 38.75 108.78 39.75C108.78 40.3833 108.914 40.8833 109.18 41.25C109.447 41.5833 109.797 41.75 110.23 41.75C110.897 41.75 111.68 41.35 112.58 40.55C113.514 39.7167 114.747 38.3833 116.28 36.55C116.68 36.0833 117.13 35.85 117.63 35.85C118.064 35.85 118.397 36.05 118.63 36.45C118.897 36.85 119.03 37.4 119.03 38.1C119.03 39.4333 118.714 40.4667 118.08 41.2C116.647 42.9667 115.097 44.4167 113.43 45.55C111.797 46.6833 109.93 47.25 107.83 47.25C106.23 47.25 105.047 46.6333 104.28 45.4C103.547 44.1667 103.18 42.4333 103.18 40.2C102.614 42.4667 101.764 44.2167 100.63 45.45C99.4971 46.65 98.2805 47.25 96.9805 47.25ZM133.926 35.85C134.36 35.85 134.693 36.05 134.926 36.45C135.193 36.85 135.326 37.4 135.326 38.1C135.326 39.4333 135.01 40.4667 134.376 41.2C132.943 42.9667 131.376 44.4167 129.676 45.55C128.01 46.6833 126.11 47.25 123.976 47.25C121.043 47.25 118.86 45.9167 117.426 43.25C116.026 40.5833 115.326 37.1333 115.326 32.9C115.326 28.8333 115.843 24.2 116.876 19C117.943 13.8 119.493 9.33333 121.526 5.6C123.593 1.86666 126.043 -2.86102e-06 128.876 -2.86102e-06C130.476 -2.86102e-06 131.726 0.749997 132.626 2.25C133.56 3.71667 134.026 5.83333 134.026 8.6C134.026 12.5667 132.926 17.1667 130.726 22.4C128.526 27.6333 125.543 32.8167 121.776 37.95C122.01 39.3167 122.393 40.3 122.926 40.9C123.46 41.4667 124.16 41.75 125.026 41.75C126.393 41.75 127.593 41.3667 128.626 40.6C129.66 39.8 130.976 38.45 132.576 36.55C132.976 36.0833 133.426 35.85 133.926 35.85ZM127.776 4.95C127.01 4.95 126.143 6.33333 125.176 9.1C124.21 11.8667 123.36 15.3 122.626 19.4C121.893 23.5 121.493 27.4333 121.426 31.2C123.793 27.3 125.676 23.4 127.076 19.5C128.476 15.5667 129.176 11.9833 129.176 8.75C129.176 6.21667 128.71 4.95 127.776 4.95ZM136.385 47.25C134.885 47.25 133.651 46.5667 132.685 45.2C131.751 43.8 131.285 42.0667 131.285 40C131.285 37.5 131.451 35.2167 131.785 33.15C132.118 31.05 132.668 28.8333 133.435 26.5C133.768 25.5 134.235 24.7833 134.835 24.35C135.435 23.9167 136.385 23.7 137.685 23.7C138.418 23.7 138.918 23.8167 139.185 24.05C139.485 24.2833 139.635 24.6333 139.635 25.1C139.635 25.3667 139.451 26.2667 139.085 27.8C138.751 29.0333 138.485 30.15 138.285 31.15C137.618 34.65 137.285 36.9833 137.285 38.15C137.285 38.85 137.368 39.35 137.535 39.65C137.701 39.9167 137.968 40.05 138.335 40.05C138.835 40.05 139.451 39.55 140.185 38.55C140.951 37.55 141.751 36.0333 142.585 34C143.451 31.9667 144.285 29.4667 145.085 26.5C145.351 25.5 145.751 24.7833 146.285 24.35C146.851 23.9167 147.685 23.7 148.785 23.7C149.551 23.7 150.085 23.8 150.385 24C150.685 24.1667 150.835 24.5 150.835 25C150.835 25.8333 150.418 28.1167 149.585 31.85C148.651 36.1167 148.185 38.75 148.185 39.75C148.185 40.3833 148.318 40.8833 148.585 41.25C148.851 41.5833 149.201 41.75 149.635 41.75C150.301 41.75 151.085 41.35 151.985 40.55C152.918 39.7167 154.151 38.3833 155.685 36.55C156.085 36.0833 156.535 35.85 157.035 35.85C157.468 35.85 157.801 36.05 158.035 36.45C158.301 36.85 158.435 37.4 158.435 38.1C158.435 39.4333 158.118 40.4667 157.485 41.2C156.051 42.9667 154.501 44.4167 152.835 45.55C151.201 46.6833 149.335 47.25 147.235 47.25C145.635 47.25 144.451 46.6333 143.685 45.4C142.951 44.1667 142.585 42.4333 142.585 40.2C142.018 42.4667 141.168 44.2167 140.035 45.45C138.901 46.65 137.685 47.25 136.385 47.25ZM163.68 48.35C161.947 48.35 160.614 47.95 159.68 47.15C158.78 46.35 158.33 45.45 158.33 44.45C158.33 43.5833 158.647 42.8333 159.28 42.2C159.914 41.5667 160.847 41.25 162.08 41.25C162.514 41.25 163.014 41.3 163.58 41.4C164.18 41.4667 164.63 41.5167 164.93 41.55C164.897 40.6833 164.697 39.8667 164.33 39.1C163.997 38.3333 163.564 37.6 163.03 36.9C162.497 36.1667 161.997 35.5333 161.53 35C160.497 36.9667 159.464 38.6 158.43 39.9C157.43 41.2 156.33 42.4333 155.13 43.6C154.53 44.2 153.897 44.5 153.23 44.5C152.697 44.5 152.264 44.3167 151.93 43.95C151.597 43.55 151.43 43.0667 151.43 42.5C151.43 41.8333 151.664 41.2167 152.13 40.65L152.78 39.85C154.614 37.5833 155.997 35.7167 156.93 34.25C157.53 33.2833 158.13 32.1333 158.73 30.8C159.364 29.4667 160.18 27.65 161.18 25.35C161.814 23.8833 163.13 23.15 165.13 23.15C166.064 23.15 166.714 23.2333 167.08 23.4C167.447 23.5667 167.63 23.8333 167.63 24.2C167.63 24.4 167.564 24.7167 167.43 25.15C167.297 25.5833 167.114 26.0167 166.88 26.45C166.28 27.65 165.98 28.6667 165.98 29.5C165.98 30 166.147 30.55 166.48 31.15C166.847 31.75 167.397 32.5 168.13 33.4C169.197 34.8 169.997 36 170.53 37C171.097 37.9667 171.38 39.0333 171.38 40.2C171.38 41.6 171.047 42.9333 170.38 44.2C169.747 45.4333 168.847 46.4333 167.68 47.2C166.514 47.9667 165.18 48.35 163.68 48.35Z" fill="#159895"/>
</svg>